<svg width="56" height="57" viewBox="0 0 56 57" fill="none" xmlns="http://www.w3.org/2000/svg">
<rect y="0.869141" width="56" height="56" rx="28" fill="#3D544D"/>
<path d="M26.4962 20.8691C19.6247 22.2025 19 28.8691 19 28.8691M19 28.8691V33.121C19 33.8163 19 34.1639 19.0574 34.453C19.2937 35.6442 20.2249 36.5754 21.4162 36.8118C21.7053 36.8691 22.0529 36.8691 22.7481 36.8691V36.8691C23.4434 36.8691 23.791 36.8691 24.0801 36.8118C25.2713 36.5754 26.2025 35.6442 26.4389 34.453C26.4962 34.1639 26.4962 33.8163 26.4962 33.121V32.8691C26.4962 31.9392 26.4962 31.4742 26.394 31.0927C26.1166 30.0574 25.308 29.2488 24.2727 28.9714C23.8912 28.8691 23.4262 28.8691 22.4962 28.8691H19Z" stroke="white" stroke-width="1.5"/>
<path d="M37 20.8691C30.1285 22.2025 29.5038 28.8691 29.5038 28.8691M29.5038 28.8691V33.121C29.5038 33.8163 29.5038 34.1639 29.5611 34.453C29.7975 35.6442 30.7287 36.5754 31.9199 36.8118C32.209 36.8691 32.5567 36.8691 33.2519 36.8691V36.8691C33.9471 36.8691 34.2947 36.8691 34.5838 36.8118C35.7751 36.5754 36.7063 35.6442 36.9427 34.453C37 34.1639 37 33.8163 37 33.121V32.8691C37 31.9392 37 31.4742 36.8978 31.0927C36.6204 30.0574 35.8117 29.2488 34.7765 28.9714C34.395 28.8691 33.93 28.8691 33 28.8691H29.5038Z" stroke="white" stroke-width="1.5"/>
</svg>
